<?xml version="1.0" standalone="no"?><!DOCTYPE svg PUBLIC "-//W3C//DTD SVG 1.1//EN" "http://www.w3.org/Graphics/SVG/1.1/DTD/svg11.dtd"><svg height="201" node-id="1" sillyvg="true" template-height="201" template-width="261" version="1.1" viewBox="0 0 261 201" width="261" xmlns="http://www.w3.org/2000/svg" xmlns:xlink="http://www.w3.org/1999/xlink"><defs node-id="89"><linearGradient gradientUnits="userSpaceOnUse" id="未命名的渐变_631" node-id="5" spreadMethod="pad" x1="228.38" x2="242.76" y1="172.13" y2="172.13"><stop offset="0" stop-color="#a1ffe4"></stop><stop offset="1" stop-color="#7df8ff"></stop></linearGradient><linearGradient gradientUnits="userSpaceOnUse" id="未命名的渐变_631-2" node-id="8" spreadMethod="pad" x1="228.38" x2="260.54" y1="179.8" y2="179.8"><stop offset="0" stop-color="#a1ffe4"></stop><stop offset="1" stop-color="#7df8ff"></stop></linearGradient><linearGradient gradientUnits="userSpaceOnUse" id="未命名的渐变_501" node-id="9" spreadMethod="pad" x1="132.1" x2="132.1" y1="151.54" y2="186.42"><stop offset="0" stop-color="#ccccff"></stop><stop offset="1" stop-color="#8fccff"></stop></linearGradient><linearGradient gradientUnits="userSpaceOnUse" id="未命名的渐变_501-2" node-id="12" spreadMethod="pad" x1="207.99" x2="207.99" y1="119.84" y2="61.47"><stop offset="0" stop-color="#ccccff"></stop><stop offset="1" stop-color="#8fccff"></stop></linearGradient><linearGradient gradientUnits="userSpaceOnUse" id="未命名的渐变_501-3" node-id="13" spreadMethod="pad" x1="53.2" x2="53.2" y1="119.84" y2="61.47"><stop offset="0" stop-color="#ccccff"></stop><stop offset="1" stop-color="#8fccff"></stop></linearGradient><linearGradient gradientUnits="userSpaceOnUse" id="未命名的渐变_570" node-id="14" spreadMethod="pad" x1="214.98" x2="225.49" y1="82.26" y2="82.26"><stop offset="0" stop-color="#ffa1ec"></stop><stop offset="1" stop-color="#ffc3a3"></stop></linearGradient><linearGradient gradientUnits="userSpaceOnUse" id="未命名的渐变_570-2" node-id="17" spreadMethod="pad" x1="36.73" x2="47.24" y1="82.26" y2="82.26"><stop offset="0" stop-color="#ffa1ec"></stop><stop offset="1" stop-color="#ffc3a3"></stop></linearGradient><linearGradient gradientUnits="userSpaceOnUse" id="未命名的渐变_104" node-id="18" spreadMethod="pad" x1="131.12" x2="131.12" y1="66.92" y2="195.42"><stop offset="0" stop-color="#6b70ff"></stop><stop offset="1" stop-color="#4be7ff"></stop></linearGradient><linearGradient gradientUnits="userSpaceOnUse" id="未命名的渐变_104-2" node-id="21" spreadMethod="pad" x1="131.12" x2="131.12" y1="158.42" y2="194.92"><stop offset="0" stop-color="#6b70ff"></stop><stop offset="1" stop-color="#4be7ff"></stop></linearGradient><linearGradient gradientUnits="userSpaceOnUse" id="未命名的渐变_104-3" node-id="22" spreadMethod="pad" x1="204.08" x2="204.08" y1="158.42" y2="194.92"><stop offset="0" stop-color="#6b70ff"></stop><stop offset="1" stop-color="#4be7ff"></stop></linearGradient><linearGradient gradientUnits="userSpaceOnUse" id="未命名的渐变_104-4" node-id="23" spreadMethod="pad" x1="59.74" x2="59.74" y1="158.42" y2="194.92"><stop offset="0" stop-color="#6b70ff"></stop><stop offset="1" stop-color="#4be7ff"></stop></linearGradient><linearGradient gradientUnits="userSpaceOnUse" id="未命名的渐变_104-5" node-id="24" spreadMethod="pad" x1="131.12" x2="131.12" y1="94.98" y2="121.7"><stop offset="0" stop-color="#6b70ff"></stop><stop offset="1" stop-color="#4be7ff"></stop></linearGradient><linearGradient gradientUnits="userSpaceOnUse" id="未命名的渐变_411" node-id="25" spreadMethod="pad" x1="131.12" x2="131.12" y1="100.41" y2="117.53"><stop offset="0" stop-color="#3a3fd9"></stop><stop offset="1" stop-color="#3392ff"></stop></linearGradient><linearGradient gradientUnits="userSpaceOnUse" id="未命名的渐变_501-4" node-id="28" spreadMethod="pad" x1="83.32" x2="83.32" y1="110.76" y2="125.37"><stop offset="0" stop-color="#ccccff"></stop><stop offset="1" stop-color="#8fccff"></stop></linearGradient><linearGradient gradientUnits="userSpaceOnUse" id="未命名的渐变_501-5" node-id="29" spreadMethod="pad" x1="96.32" x2="96.32" y1="110.76" y2="125.37"><stop offset="0" stop-color="#ccccff"></stop><stop offset="1" stop-color="#8fccff"></stop></linearGradient><linearGradient gradientUnits="userSpaceOnUse" id="未命名的渐变_428" node-id="30" spreadMethod="pad" x1="164.32" x2="164.32" y1="110.76" y2="125.37"><stop offset="0" stop-color="#ffb999"></stop><stop offset="1" stop-color="#fff533"></stop></linearGradient><linearGradient gradientUnits="userSpaceOnUse" id="未命名的渐变_428-2" node-id="33" spreadMethod="pad" x1="177.32" x2="177.32" y1="110.76" y2="125.37"><stop offset="0" stop-color="#ffb999"></stop><stop offset="1" stop-color="#fff533"></stop></linearGradient><linearGradient gradientUnits="userSpaceOnUse" id="未命名的渐变_529" node-id="34" spreadMethod="pad" x1="166.34" x2="166.34" y1="104.89" y2="143.04"><stop offset="0" stop-color="#f08e71"></stop><stop offset="1" stop-color="#ffdb8c"></stop></linearGradient><linearGradient gradientTransform="matrix(0.98865174 0.15022559 -0.15022559 0.98865174 20.47 -27.53)" gradientUnits="userSpaceOnUse" id="未命名的渐变_428-3" node-id="37" spreadMethod="pad" x1="192.55" x2="192.55" y1="84" y2="154"><stop offset="0" stop-color="#ffb999"></stop><stop offset="1" stop-color="#fff533"></stop></linearGradient><linearGradient gradientUnits="userSpaceOnUse" id="未命名的渐变_529-2" node-id="38" spreadMethod="pad" x1="197.57" x2="197.57" y1="96.01" y2="148.84"><stop offset="0" stop-color="#f08e71"></stop><stop offset="1" stop-color="#ffdb8c"></stop></linearGradient><linearGradient gradientUnits="userSpaceOnUse" id="未命名的渐变_428-4" node-id="39" spreadMethod="pad" x1="192.25" x2="192.25" y1="101.86" y2="133.48"><stop offset="0" stop-color="#ffb999"></stop><stop offset="1" stop-color="#fff533"></stop></linearGradient><linearGradient gradientUnits="userSpaceOnUse" id="未命名的渐变_570-3" node-id="40" spreadMethod="pad" x1="130.41" x2="130.41" y1="37" y2="95"><stop offset="0" stop-color="#ffa1ec"></stop><stop offset="1" stop-color="#ffc3a3"></stop></linearGradient><linearGradient gradientUnits="userSpaceOnUse" id="未命名的渐变_631-3" node-id="41" spreadMethod="pad" x1="-1420.62" x2="-1437.16" y1="-141.38" y2="-141.38"><stop offset="0" stop-color="#a1ffe4"></stop><stop offset="1" stop-color="#7df8ff"></stop></linearGradient><linearGradient gradientUnits="userSpaceOnUse" id="未命名的渐变_631-4" node-id="42" spreadMethod="pad" x1="-1400.26" x2="-1437.24" y1="-150.2" y2="-150.2"><stop offset="0" stop-color="#a1ffe4"></stop><stop offset="1" stop-color="#7df8ff"></stop></linearGradient></defs><g node-id="316"><path d="M 240.59 18.81 C 240.59 21.21 238.64 23.16 236.24 23.16 C 233.84 23.16 231.89 21.21 231.89 18.81 C 231.89 16.41 233.84 14.46 236.24 14.46 C 238.64 14.46 240.59 16.41 240.59 18.81 Z" fill="#dfe8ef" fill-rule="nonzero" group-id="1" node-id="238" stroke="none" target-height="8.7" target-width="8.699997" target-x="231.89" target-y="14.46"></path><path d="M 61.59 51.81 C 61.59 54.21 59.64 56.16 57.24 56.16 C 54.84 56.16 52.89 54.21 52.89 51.81 C 52.89 49.41 54.84 47.46 57.24 47.46 C 59.64 47.46 61.59 49.41 61.59 51.81 Z" fill="#dfe8ef" fill-rule="nonzero" group-id="1" node-id="240" stroke="none" target-height="8.700001" target-width="8.700001" target-x="52.89" target-y="47.46"></path><path d="M 230.45 170.06 L 240.77 170.06 C 241.91 170.06 242.84 170.99 242.84 172.13 L 242.84 172.13 C 242.84 173.27 241.91 174.20 240.77 174.20 L 230.45 174.20 C 229.31 174.20 228.38 173.27 228.38 172.13 L 228.38 172.13 C 228.38 170.99 229.31 170.06 230.45 170.06 Z" fill="url(#未命名的渐变_631)" fill-rule="nonzero" group-id="1" node-id="242" stroke="none" target-height="4.1399994" target-width="14.459991" target-x="228.38" target-y="170.06"></path><path d="M 230.45 177.73 L 258.48 177.73 C 259.62 177.73 260.55 178.66 260.55 179.80 L 260.55 179.80 C 260.55 180.94 259.62 181.87 258.48 181.87 L 230.45 181.87 C 229.31 181.87 228.38 180.94 228.38 179.80 L 228.38 179.80 C 228.38 178.66 229.31 177.73 230.45 177.73 Z" fill="url(#未命名的渐变_631-2)" fill-rule="nonzero" group-id="1" node-id="244" stroke="none" target-height="4.1399994" target-width="32.169983" target-x="228.38" target-y="177.73"></path><path d="M 47.22 51.65 L 126.67 51.65 C 130.43 51.65 133.48 54.70 133.48 58.46 L 133.48 115.19 C 133.48 118.95 130.43 122.00 126.67 122.00 L 47.22 122.00 C 43.46 122.00 40.41 118.95 40.41 115.19 L 40.41 58.46 C 40.41 54.70 43.46 51.65 47.22 51.65 Z" fill="none" group-id="1" node-id="246" stroke="#dfe8ef" stroke-dasharray="5 6" stroke-linecap="round" stroke-width="2" target-height="70.35" target-width="93.06999" target-x="40.41" target-y="51.65"></path><path d="M 120.20 1.00 L 225.25 1.00 C 231.21 1.00 236.04 5.83 236.04 11.79 L 236.04 119.89 C 236.04 125.85 231.21 130.68 225.25 130.68 L 120.20 130.68 C 114.24 130.68 109.41 125.85 109.41 119.89 L 109.41 11.79 C 109.41 5.83 114.24 1.00 120.20 1.00 Z" fill="none" group-id="1" node-id="248" stroke="#dfe8ef" stroke-dasharray="5 6" stroke-linecap="round" stroke-width="2" target-height="129.68" target-width="126.62999" target-x="109.41" target-y="1"></path><path d="M 169.82 151.00 L 217.00 151.00 C 219.44 151.00 221.41 152.97 221.41 155.41 L 221.41 195.59 C 221.41 198.03 219.44 200.00 217.00 200.00 L 169.82 200.00 C 167.38 200.00 165.41 198.03 165.41 195.59 L 165.41 155.41 C 165.41 152.97 167.38 151.00 169.82 151.00 Z" fill="none" group-id="1" node-id="250" stroke="#dfe8ef" stroke-dasharray="5 6" stroke-linecap="round" stroke-width="2" target-height="49" target-width="56" target-x="165.41" target-y="151"></path><path d="M 131.12 152.08 L 60.12 152.08 L 60.12 178.90 L 72.21 178.90 C 86.29 167.27 106.64 167.27 120.72 178.90 L 143.21 178.90 C 157.29 167.27 177.64 167.27 191.72 178.90 L 204.08 178.90 L 204.08 152.08 L 131.08 152.08 Z" fill="url(#未命名的渐变_501)" fill-rule="nonzero" group-id="1" node-id="252" stroke="none" target-height="26.819992" target-width="143.96" target-x="60.12" target-y="152.08"></path><path d="M 219.58 70.78 C 215.71 70.78 212.10 72.73 209.98 75.97 C 207.86 79.21 207.51 83.29 209.05 86.84 L 184.93 111.00 L 191.16 117.23 L 215.41 92.98 C 216.74 93.50 218.15 93.77 219.58 93.77 C 225.93 93.77 231.08 88.62 231.08 82.27 C 231.08 75.92 225.93 70.77 219.58 70.77 Z" fill="url(#未命名的渐变_501-2)" fill-rule="nonzero" group-id="1" node-id="254" stroke="none" target-height="46.460007" target-width="46.15001" target-x="184.93" target-y="70.77"></path><path d="M 76.23 111.00 L 52.15 86.88 C 52.80 85.43 53.14 83.85 53.15 82.26 C 53.14 77.23 49.86 72.80 45.06 71.31 C 40.26 69.83 35.05 71.64 32.20 75.79 C 29.36 79.93 29.54 85.44 32.66 89.39 C 35.77 93.34 41.09 94.80 45.78 93.00 L 70.00 117.19 Z" fill="url(#未命名的渐变_501-3)" fill-rule="nonzero" group-id="1" node-id="256" stroke="none" target-height="47.361496" target-width="46.869713" target-x="29.360289" target-y="69.82851"></path><path d="M 220.24 77.00 C 217.34 77.01 215.00 79.36 215.00 82.26 C 215.01 82.95 215.15 83.63 215.42 84.26 C 216.45 86.68 219.10 87.97 221.64 87.27 C 224.17 86.58 225.81 84.12 225.46 81.51 C 225.11 78.91 222.89 76.96 220.26 76.96 Z" fill="url(#未命名的渐变_570)" fill-rule="nonzero" group-id="1" node-id="258" stroke="#ffffff" stroke-linecap="butt" stroke-width="2" target-height="11.007378" target-width="10.8050995" target-x="214.99998" target-y="76.96"></path><path d="M 42.00 77.00 C 40.95 77.00 39.93 77.31 39.06 77.90 C 38.78 78.09 38.52 78.30 38.28 78.54 C 38.16 78.66 38.05 78.78 37.94 78.91 C 37.16 79.85 36.74 81.03 36.74 82.25 L 36.74 82.25 C 36.74 84.38 38.01 86.30 39.98 87.12 C 41.95 87.93 44.21 87.49 45.72 85.98 C 47.22 84.48 47.67 82.22 46.86 80.25 C 46.05 78.28 44.13 77.00 42.00 77.00 Z" fill="url(#未命名的渐变_570-2)" fill-rule="nonzero" group-id="1" node-id="260" stroke="#ffffff" stroke-linecap="butt" stroke-width="2" target-height="10.936615" target-width="10.93816" target-x="36.735954" target-y="76.99741"></path><path d="M 131.12 79.09 C 109.86 79.09 89.46 87.53 74.42 102.57 C 59.39 117.60 50.94 138.00 50.94 159.26 L 211.29 159.26 C 211.29 114.98 175.40 79.09 131.12 79.09 Z" fill="url(#未命名的渐变_104)" fill-rule="nonzero" group-id="1" id="_路径_" node-id="59" stroke="none" target-height="80.172646" target-width="160.34999" target-x="50.94" target-y="79.08735"></path><g node-id="317"><path d="M 131.12 166.56 C 124.30 166.56 118.78 172.08 118.78 178.90 C 118.78 185.72 124.30 191.24 131.12 191.24 C 137.94 191.24 143.46 185.72 143.46 178.90 C 143.46 175.63 142.16 172.49 139.85 170.17 C 137.53 167.86 134.39 166.56 131.12 166.56 Z" fill="url(#未命名的渐变_104-2)" fill-rule="nonzero" group-id="1,2" node-id="264" stroke="none" target-height="24.682663" target-width="24.682663" target-x="118.78" target-y="166.55734"></path><path d="M 204.08 166.56 C 197.26 166.56 191.74 172.08 191.74 178.90 C 191.74 185.72 197.26 191.24 204.08 191.24 C 210.90 191.24 216.42 185.72 216.42 178.90 C 216.42 175.63 215.12 172.49 212.81 170.17 C 210.49 167.86 207.35 166.56 204.08 166.56 Z" fill="url(#未命名的渐变_104-3)" fill-rule="nonzero" group-id="1,2" node-id="266" stroke="none" target-height="24.682663" target-width="24.682648" target-x="191.74" target-y="166.55734"></path><path d="M 59.74 166.56 C 52.92 166.56 47.40 172.08 47.40 178.90 C 47.40 185.72 52.92 191.24 59.74 191.24 C 66.56 191.24 72.08 185.72 72.08 178.90 C 72.08 175.63 70.78 172.49 68.47 170.17 C 66.15 167.86 63.01 166.56 59.74 166.56 Z" fill="url(#未命名的渐变_104-4)" fill-rule="nonzero" group-id="1,2" node-id="268" stroke="none" target-height="24.682663" target-width="24.682655" target-x="47.4" target-y="166.55734"></path><path d="M 66.00 178.90 C 66.00 182.34 63.22 185.12 59.78 185.12 C 56.34 185.12 53.56 182.34 53.56 178.90 C 53.56 175.46 56.34 172.68 59.78 172.68 C 61.43 172.68 63.01 173.33 64.18 174.50 C 65.35 175.67 66.00 177.25 66.00 178.90 Z" fill="#ffffff" fill-rule="nonzero" group-id="1,2" id="_路径_2" node-id="64" stroke="none" target-height="12.442657" target-width="12.442661" target-x="53.56" target-y="172.67734"></path></g><path d="M 137.34 178.90 C 137.34 182.34 134.56 185.12 131.12 185.12 C 127.68 185.12 124.90 182.34 124.90 178.90 C 124.90 175.46 127.68 172.68 131.12 172.68 C 134.56 172.68 137.34 175.46 137.34 178.90 Z" fill="#ffffff" fill-rule="nonzero" group-id="1" id="_路径_3" node-id="65" stroke="none" target-height="12.440002" target-width="12.439995" target-x="124.9" target-y="172.68"></path><path d="M 210.30 178.90 C 210.30 182.34 207.52 185.12 204.08 185.12 C 200.64 185.12 197.86 182.34 197.86 178.90 C 197.86 175.46 200.64 172.68 204.08 172.68 C 205.73 172.68 207.31 173.33 208.48 174.50 C 209.65 175.67 210.30 177.25 210.30 178.90 Z" fill="#ffffff" fill-rule="nonzero" group-id="1" id="_路径_4" node-id="66" stroke="none" target-height="12.442657" target-width="12.442657" target-x="197.86" target-y="172.67734"></path><path d="M 131.12 90.00 C 121.38 90.00 113.48 97.90 113.48 107.64 L 113.48 107.64 C 113.48 117.38 121.38 125.28 131.12 125.28 C 140.86 125.28 148.76 117.38 148.76 107.64 C 148.76 97.90 140.86 90.00 131.12 90.00 Z" fill="#ffffff" fill-rule="nonzero" group-id="1,3" node-id="275" stroke="none" target-height="35.28" target-width="35.27999" target-x="113.48" target-y="90"></path><path d="M 145.28 107.64 C 145.28 113.37 141.83 118.54 136.53 120.73 C 131.23 122.92 125.14 121.71 121.09 117.66 C 117.03 113.60 115.83 107.51 118.02 102.21 C 120.22 96.92 125.39 93.47 131.12 93.47 C 134.88 93.47 138.48 94.96 141.14 97.62 C 143.79 100.28 145.28 103.88 145.28 107.64 Z" fill="url(#未命名的渐变_104-5)" fill-rule="nonzero" group-id="1,3" id="_路径_5" node-id="69" stroke="none" target-height="29.45903" target-width="29.45755" target-x="115.8251" target-y="93.46596"></path><path d="M 139.45 107.64 C 139.45 112.24 135.72 115.97 131.12 115.97 C 126.52 115.97 122.79 112.24 122.79 107.64 C 122.79 103.04 126.52 99.31 131.12 99.31 C 135.72 99.31 139.45 103.04 139.45 107.64 Z" fill="url(#未命名的渐变_411)" fill-rule="nonzero" group-id="1,3" id="_路径_6" node-id="70" stroke="none" target-height="16.660004" target-width="16.659996" target-x="122.79" target-y="99.31"></path><path d="M 141.05 102.10 C 141.05 104.15 139.39 105.81 137.34 105.81 C 135.29 105.81 133.63 104.15 133.63 102.10 C 133.63 100.05 135.29 98.39 137.34 98.39 C 139.39 98.39 141.05 100.05 141.05 102.10 Z" fill="#ffffff" fill-rule="nonzero" group-id="1,3" id="_路径_7" node-id="71" stroke="none" target-height="7.419998" target-width="7.419998" target-x="133.63" target-y="98.39"></path><path d="M 131.12 143.29 C 137.91 143.29 143.41 137.79 143.41 131.00 L 118.83 131.00 C 118.83 137.79 124.33 143.29 131.12 143.29 Z" fill="#ffffff" fill-rule="nonzero" group-id="1" id="_路径_8" node-id="72" stroke="none" target-height="12.289993" target-width="24.580002" target-x="118.83" target-y="131"></path><path d="M 87.45 112.62 C 86.99 112.16 86.37 111.90 85.72 111.90 C 85.06 111.90 84.44 112.16 83.98 112.62 L 79.19 117.41 C 78.52 118.02 78.24 118.95 78.46 119.83 C 78.67 120.71 79.36 121.40 80.24 121.62 C 81.12 121.84 82.05 121.56 82.66 120.89 L 87.45 116.10 C 87.91 115.64 88.17 115.01 88.17 114.36 C 88.17 113.71 87.91 113.08 87.45 112.62 Z" fill="url(#未命名的渐变_501-4)" fill-rule="nonzero" group-id="1,4" id="_路径_9" node-id="74" stroke="none" target-height="9.940216" target-width="9.935501" target-x="78.235535" target-y="111.89982"></path><path d="M 100.45 112.62 C 99.99 112.16 99.37 111.90 98.72 111.90 C 98.06 111.90 97.44 112.16 96.98 112.62 L 92.19 117.41 C 91.52 118.02 91.24 118.95 91.46 119.83 C 91.67 120.71 92.36 121.40 93.24 121.62 C 94.12 121.84 95.05 121.56 95.66 120.89 L 100.45 116.10 C 100.91 115.64 101.17 115.01 101.17 114.36 C 101.17 113.71 100.91 113.08 100.45 112.62 Z" fill="url(#未命名的渐变_501-5)" fill-rule="nonzero" group-id="1,5" id="_路径_10" node-id="76" stroke="none" target-height="9.940216" target-width="9.935501" target-x="91.235535" target-y="111.89982"></path><path d="M 168.45 112.62 C 167.99 112.16 167.37 111.90 166.72 111.90 C 166.06 111.90 165.44 112.16 164.98 112.62 L 160.19 117.41 C 159.31 118.38 159.34 119.87 160.27 120.80 C 161.19 121.73 162.69 121.77 163.66 120.89 L 168.45 116.10 C 168.91 115.64 169.17 115.01 169.17 114.36 C 169.17 113.71 168.91 113.08 168.45 112.62 Z" fill="url(#未命名的渐变_428)" fill-rule="nonzero" group-id="1,6" id="_路径_11" node-id="78" stroke="none" target-height="9.871857" target-width="9.865509" target-x="159.30553" target-y="111.89982"></path><path d="M 181.45 112.62 C 180.99 112.16 180.37 111.90 179.72 111.90 C 179.06 111.90 178.44 112.16 177.98 112.62 L 173.19 117.41 C 172.31 118.38 172.34 119.87 173.27 120.80 C 174.19 121.73 175.69 121.77 176.66 120.89 L 181.45 116.10 C 181.91 115.64 182.17 115.01 182.17 114.36 C 182.17 113.71 181.91 113.08 181.45 112.62 Z" fill="url(#未命名的渐变_428-2)" fill-rule="nonzero" group-id="1,7" id="_路径_12" node-id="80" stroke="none" target-height="9.871857" target-width="9.865509" target-x="172.30553" target-y="111.89982"></path><path d="M 182.23 144.78 L 177.85 124.00 L 175.85 102.86 C 175.85 102.86 149.34 113.31 150.48 127.07 L 150.70 128.49 C 153.70 142.00 182.23 144.78 182.23 144.78 Z" fill="url(#未命名的渐变_529)" fill-rule="nonzero" group-id="1" node-id="294" stroke="none" target-height="41.92" target-width="32.89" target-x="149.34" target-y="102.86"></path><path d="M 211.74 118.84 L 212.26 123.54 L 212.42 127.99 L 212.23 132.20 L 211.68 136.39 L 210.85 140.16 L 209.75 143.55 L 208.28 146.80 L 206.61 149.49 L 204.75 151.71 L 202.56 153.55 L 200.22 154.79 L 197.69 155.49 L 195.06 155.58 L 192.45 155.08 L 189.82 153.98 L 187.38 152.41 L 184.99 150.34 L 182.62 147.67 L 180.56 144.76 L 178.64 141.41 L 176.88 137.57 L 175.45 133.60 L 174.27 129.31 L 173.38 124.67 L 172.85 119.97 L 172.70 115.52 L 172.89 111.30 L 173.43 107.12 L 174.27 103.35 L 175.37 99.95 L 176.84 96.71 L 178.51 94.01 L 180.37 91.80 L 182.56 89.96 L 184.90 88.71 L 187.43 88.01 L 190.06 87.93 L 192.66 88.42 L 195.30 89.53 L 197.73 91.09 L 200.13 93.17 L 202.49 95.83 L 204.56 98.74 L 206.47 102.10 L 208.23 105.93 L 209.67 109.90 L 210.84 114.19 L 211.74 118.84 Z" fill="url(#未命名的渐变_428-3)" fill-rule="nonzero" group-id="1,8" node-id="298" stroke="none" target-height="67.6522" target-width="39.720383" target-x="172.69766" target-y="87.92608"></path><path d="M 209.60 119.18 C 207.40 104.68 200.20 93.75 193.53 94.76 C 188.72 95.50 185.53 102.25 184.90 111.40 C 190.74 112.50 198.37 114.90 199.55 120.02 L 199.68 120.91 C 200.08 126.16 193.50 130.91 188.27 133.80 C 191.55 142.44 196.67 148.00 201.51 147.26 C 208.18 146.25 211.80 133.67 209.60 119.18 Z" fill="url(#未命名的渐变_529-2)" fill-rule="nonzero" group-id="1" node-id="301" stroke="none" target-height="54.25" target-width="26.90001" target-x="184.9" target-y="93.75"></path><path d="M 199.68 120.91 L 199.55 120.02 C 198.37 114.90 190.74 112.50 184.90 111.40 C 184.47 119.02 185.62 126.64 188.27 133.80 C 193.50 130.89 200.08 126.16 199.68 120.91 Z" fill="url(#未命名的渐变_428-4)" fill-rule="nonzero" group-id="1" node-id="303" stroke="none" target-height="22.400002" target-width="15.61058" target-x="184.46942" target-y="111.4"></path><path d="M 57.41 76.00 L 74.41 76.00 L 81.41 61.00 L 89.41 82.00 L 97.41 38.00 L 102.41 94.00 L 108.41 62.00 L 137.41 62.00 L 142.41 75.00 L 149.41 51.00 L 155.41 90.00 L 162.41 71.00 L 177.41 71.00 L 181.41 82.00 L 186.41 59.00 L 190.41 75.00 L 203.41 75.00" fill="none" group-id="1" node-id="305" stroke="url(#未命名的渐变_570-3)" stroke-linecap="round" stroke-width="2" target-height="56" target-width="146" target-x="57.41" target-y="38"></path><path d="M 34.60 144.76 L 22.73 144.76 L 21.80 144.57 L 21.05 144.06 L 20.54 143.31 L 20.35 142.38 L 20.35 142.38 L 20.54 141.45 L 21.05 140.70 L 21.80 140.19 L 22.73 140.00 L 34.60 140.00 L 35.53 140.19 L 36.28 140.70 L 36.79 141.45 L 36.98 142.38 L 36.98 142.38 L 36.79 143.31 L 36.28 144.06 L 35.53 144.57 L 34.60 144.76 Z" fill="url(#未命名的渐变_631-3)" fill-rule="nonzero" group-id="1,9" node-id="309" stroke="none" target-height="4.7599945" target-width="16.630001" target-x="20.349998" target-y="140.00002"></path><path d="M 34.60 153.59 L 2.38 153.59 L 1.45 153.40 L 0.70 152.89 L 0.19 152.14 L 0.00 151.21 L 0.00 151.21 L 0.19 150.28 L 0.70 149.53 L 1.45 149.02 L 2.38 148.83 L 34.60 148.83 L 35.53 149.02 L 36.28 149.53 L 36.79 150.28 L 36.98 151.21 L 36.98 151.21 L 36.79 152.14 L 36.28 152.89 L 35.53 153.40 L 34.60 153.59 Z" fill="url(#未命名的渐变_631-4)" fill-rule="nonzero" group-id="1,10" node-id="314" stroke="none" target-height="4.7599945" target-width="36.98" target-x="0" target-y="148.83"></path></g></svg>