<?xml version="1.0" standalone="no"?><!DOCTYPE svg PUBLIC "-//W3C//DTD SVG 1.1//EN" "http://www.w3.org/Graphics/SVG/1.1/DTD/svg11.dtd"><svg t="1699437785134" class="icon" viewBox="0 0 1024 1024" version="1.1" xmlns="http://www.w3.org/2000/svg" p-id="1634" xmlns:xlink="http://www.w3.org/1999/xlink" width="250" height="250"><path d="M571.2 253c-3.1 0-6.3-1.3-8.6-3.8-4.3-4.7-3.9-12 0.8-16.3l92.4-83.8c4.7-4.3 12-3.9 16.3 0.8 4.3 4.7 3.9 12-0.8 16.3L579 250c-2.2 2-5 3-7.8 3zM123.6 799.8c-3.4 0-6.7-1.5-9-4.3-4-5-3.2-12.2 1.7-16.2l60.6-49.1c5-4 12.2-3.3 16.3 1.7 4 5 3.2 12.2-1.7 16.2l-60.6 49.1c-2.2 1.8-4.8 2.6-7.3 2.6zM502.9 877.8c-3.2 0-6.4-1.3-8.7-4-4.2-4.8-3.7-12.1 1.1-16.3l66.4-57.8c4.8-4.2 12.1-3.7 16.3 1.1 4.2 4.8 3.7 12.1-1.1 16.3L510.4 875c-2.2 1.9-4.9 2.8-7.5 2.8z" fill="#3A4D51" p-id="1635"></path><path d="M623.2 705.5l87.6 83.8 30.8-12.6 53-62.5 28.8-75.1-0.9-74.2-20.2-45.2-61.7 81.8-104.9 72.2zM423 506.2c-1.9-2.9-92.4-105.9-92.4-105.9s125.2-128 217.6-101.1 55.3 31.7 55.3 31.7L423 506.2z" fill="#EDAB38" p-id="1636"></path><path d="M541 754.5c-4 0-8.1-1.6-11.1-4.6L372.1 592c-4.4-4.4-5.8-11.1-3.4-16.9 1.4-3.5 35.7-87.6 117.8-175.1 48.2-51.4 103-93.3 162.9-124.4 74.9-38.9 157.7-61 246.2-65.6 4.4-0.2 8.7 1.4 11.9 4.6 3.1 3.1 4.8 7.5 4.6 11.9-5 88.1-27.3 170.8-66.3 245.5-31.2 59.8-73 114.6-124.3 162.9-87.4 82.3-171 117.1-174.5 118.5-2 0.8-4 1.1-6 1.1z" fill="#3A4D51" p-id="1637"></path><path d="M401.7 577.5l142.7 142.7c23.8-11.3 89.7-45.8 156.4-108.8 106.5-100.7 166.5-224.8 178.7-368.9-144.7 11.5-269 71.4-369.4 178.1-63 66.9-97.2 133.1-108.4 156.9z" fill="#F2CA69" p-id="1638"></path><path d="M292.2 845.4c-4.1 0-8.1-1.6-11.1-4.6-3.3-3.3-4.9-7.7-4.5-12.3 0.1-1 2.1-25.4 8.1-54 8.5-40.2 20.4-68.2 35.5-83.3 30.5-30.5 80-30.5 110.5 0s30.5 80 0 110.5c-15.2 15.2-43.2 27.1-83.3 35.5-28.6 6-52.9 8.1-54 8.1h-1.2z" fill="#3A4D51" p-id="1639"></path><path d="M342.4 713.3c-10.4 10.4-20 34.4-27 67.3-2.5 11.6-4.2 22.6-5.4 31.4 8.7-1.2 19.7-3 31.4-5.4 33-7 56.9-16.5 67.3-27 18.3-18.3 18.3-48 0-66.3-18.3-18.3-48-18.3-66.3 0z" fill="#E5767E" p-id="1640"></path><path d="M424.7 519.8c-4 0-8-1.5-11.1-4.6L318 419.6c-5-5-6.1-12.8-2.5-18.9 60.7-104.1 189.9-146.4 300.4-98.4 7.9 3.5 11.5 12.6 8.1 20.6-3.5 7.9-12.6 11.5-20.6 8.1-92.3-40.1-199.7-7.7-254.7 75.3l86.9 86.9c6.1 6.1 6.1 16 0 22.1-2.9 3-6.8 4.5-10.9 4.5zM713.5 808.6c-4 0-8.1-1.6-11.1-4.6l-96.1-96.2c-6.1-6.1-6.1-16 0-22.1 6.1-6.1 16-6.1 22.1 0l87.4 87.4c83.5-55.3 115.7-163.1 74.8-255.8-3.5-7.9 0.1-17.1 8-20.6s17.1 0.1 20.6 8c49 110.9 7 240.7-97.8 301.7-2.5 1.5-5.2 2.2-7.9 2.2z" fill="#3A4D51" p-id="1641"></path><path d="M484.8 660.6c17.3-46.6 151-387.4 380.1-416.7-138.5 14.3-257.8 73.5-354.9 176.6-63 66.9-97.2 133.1-108.3 157l83.1 83.1z" fill="#EDAB38" p-id="1642"></path><path d="M625.5 574.6c-43.1 0-78.1-35-78.1-78.1s35-78.1 78.1-78.1c43.1 0 78.1 35 78.1 78.1s-35 78.1-78.1 78.1z" fill="#3A4D51" p-id="1643"></path><path d="M625.5 449.6c-25.8 0-46.9 21-46.9 46.9 0 25.8 21 46.9 46.9 46.9 25.8 0 46.9-21 46.9-46.9s-21-46.9-46.9-46.9z" fill="#EEB1B3" p-id="1644"></path><path d="M840.8 462.2c-4 0-8-1.5-11.1-4.6l-166-166c-6.1-6.1-6.1-16 0-22.1 6.1-6.1 16-6.1 22.1 0l166 166c6.1 6.1 6.1 16 0 22.1-3 3-6.9 4.6-11 4.6z" fill="#3A4D51" p-id="1645"></path></svg>