<?xml version="1.0" standalone="no"?><!DOCTYPE svg PUBLIC "-//W3C//DTD SVG 1.1//EN" "http://www.w3.org/Graphics/SVG/1.1/DTD/svg11.dtd"><svg t="1699437661886" class="icon" viewBox="0 0 1024 1024" version="1.1" xmlns="http://www.w3.org/2000/svg" p-id="13591" xmlns:xlink="http://www.w3.org/1999/xlink" width="250" height="250"><path d="M501.333333 168.106667c-40.533333 0-228.693333 11.306667-359.893333 213.333333a302.506667 302.506667 0 0 0-45.44 159.36 205.013333 205.013333 0 0 0 124.586667 183.253333s87.68 48.64 106.666666 57.173334v40.106666s0 34.56 52.48 34.56h4.266667a328.96 328.96 0 0 0 85.333333-17.28s9.386667 1.92 23.893334 3.626667c6.4 0 22.826667 2.773333 27.733333 2.986667h1.493333a282.666667 282.666667 0 0 0 66.133334-13.226667 478.506667 478.506667 0 0 0 85.333333 23.04 46.933333 46.933333 0 0 0 44.8-44.373333v-40.746667s146.133333-59.306667 186.666667-149.333333c0 0 26.453333-48.64 11.306666-143.146667a414.72 414.72 0 0 0-113.066666-189.013333s26.24-36.48 49.706666-39.68a44.373333 44.373333 0 0 0 29.653334 11.093333 45.44 45.44 0 1 0-42.666667-32.426667 118.4 118.4 0 0 0-42.666667 36.053334c-1.706667 2.56-5.546667 9.386667-6.826666 11.306666-14.72-15.36-106.666667-101.333333-280.746667-106.666666h-8.746667m0-10.666667h8.32c155.946667 4.693333 246.613333 71.68 277.333334 100.053333a126.08 126.08 0 0 1 39.466666-35.626666 46.72 46.72 0 0 1 0-7.68 56.106667 56.106667 0 1 1 56.106667 56.533333 54.826667 54.826667 0 0 1-32.213333-10.453333 96.213333 96.213333 0 0 0-32.64 27.306666 438.613333 438.613333 0 0 1 85.333333 122.88 341.333333 341.333333 0 0 1 23.68 64c14.933333 93.653333-9.6 144.426667-12.373333 149.333334a210.133333 210.133333 0 0 1-48.426667 64 435.2 435.2 0 0 1-64 48.213333 618.666667 618.666667 0 0 1-73.173333 38.826667V810.666667a57.813333 57.813333 0 0 1-30.08 48.426666 59.093333 59.093333 0 0 1-25.813334 7.04h-1.066666a482.346667 482.346667 0 0 1-85.333334-21.333333 293.333333 293.333333 0 0 1-65.28 11.733333h-1.706666c-4.48 0-15.573333-1.28-26.453334-2.773333H490.666667c-9.6-1.28-16.853333-2.346667-21.333334-3.2a359.893333 359.893333 0 0 1-85.333333 16.853333h-5.12a64 64 0 0 1-54.4-21.333333 42.666667 42.666667 0 0 1-8.746667-23.893333v-34.133334c-26.88-13.013333-96-51.413333-101.76-54.613333a242.773333 242.773333 0 0 1-77.44-57.6 207.146667 207.146667 0 0 1-38.613333-64A194.133333 194.133333 0 0 1 85.333333 540.373333a335.146667 335.146667 0 0 1 23.68-120.32 265.173333 265.173333 0 0 1 23.466667-45.866666 510.506667 510.506667 0 0 1 108.16-120.106667 442.666667 442.666667 0 0 1 110.72-65.066667 407.893333 407.893333 0 0 1 149.973333-31.573333z" fill="#007873" p-id="13592"></path><path d="M328.106667 821.546667v-40.32a725.333333 725.333333 0 0 0 142.933333 57.6H469.333333a326.4 326.4 0 0 1-85.333333 17.066666h-4.266667c-51.626667 0-51.626667-34.346667-51.626666-34.346666z m260.48 10.453333a232.746667 232.746667 0 0 1-33.493334 8.32 131.2 131.2 0 0 1-30.293333 4.053333 174.933333 174.933333 0 0 0 25.6-3.2q-12.8 2.346667-25.6 3.2C618.666667 820.693333 794.24 727.68 853.333333 621.44c67.2-120.32 35.626667-227.626667-5.546666-282.88A405.333333 405.333333 0 0 1 917.333333 477.653333c15.146667 94.506667-11.306667 143.36-11.306666 143.36-40.533333 89.6-186.666667 149.333333-186.666667 149.333334V810.666667a47.36 47.36 0 0 1-45.226667 45.866666 484.906667 484.906667 0 0 1-85.333333-23.04z m-117.546667 5.973333c4.266667 0 17.493333 2.133333 31.146667 4.48 3.626667 0 11.52 1.493333 17.066666 1.92a261.973333 261.973333 0 0 1-48.213333-6.4z" fill="#BFEDE5" p-id="13593"></path><path d="M926.506667 202.88A49.493333 49.493333 0 0 1 896 240a149.333333 149.333333 0 0 1-42.666667 9.173333 44.373333 44.373333 0 0 0 29.226667 10.666667A45.44 45.44 0 0 0 928 213.333333a40.106667 40.106667 0 0 0-1.493333-10.453333z" fill="#BFEDE5" p-id="13594"></path><path d="M775.253333 460.586667c-6.613333-77.226667-59.946667-128-96.213333-154.88-75.306667-57.173333-181.12-57.173333-181.12-57.173334s-106.666667 0-181.12 57.173334a237.866667 237.866667 0 0 0-96.213333 154.88c-2.986667 21.333333-13.44 45.013333 33.92 80 0 0 62.293333 46.72 243.413333 51.626666 181.12-4.906667 243.413333-51.626667 243.413333-51.626666 44.586667-23.893333 35.84-58.453333 33.92-80z m-492.586666-15.146667a14.293333 14.293333 0 0 1-13.653334 9.386667 14.293333 14.293333 0 0 1-13.44-19.84 239.786667 239.786667 0 0 1 93.653334-108.586667 14.933333 14.933333 0 0 1 20.053333 5.546667 14.506667 14.506667 0 0 1-5.333333 19.626666 215.68 215.68 0 0 0-81.28 93.866667z m107.733333 50.986667a3.84 3.84 0 0 1-3.84 3.84H360.533333a3.84 3.84 0 0 1-3.84-3.84v-100.906667a3.84 3.84 0 0 1 3.84-3.84h26.026667a3.84 3.84 0 0 1 3.84 3.84z m0-163.626667a16.64 16.64 0 1 1 16.64-16.64 16.64 16.64 0 0 1-16.64 16.64zM640 496.426667a3.84 3.84 0 0 1-3.84 3.84h-26.88a3.84 3.84 0 0 1-3.84-3.84v-100.906667a3.84 3.84 0 0 1 3.84-3.84h26.24a3.84 3.84 0 0 1 3.84 3.84z" fill="#007873" p-id="13595"></path></svg>